<svg xmlns="http://www.w3.org/2000/svg" width="256" height="256"><path fill="#1976D2" fill-opacity=".016" fill-rule="evenodd" d="M0 128.004v128.004l128.25-.254 128.25-.254.254-127.75L257.008 0H0zm.485.496c0 70.4.119 99.053.265 63.672s.146-92.98 0-128S.485 58.1.485 128.5"/><path fill="#1976D2" fill-opacity=".255" fill-rule="evenodd" d="M19.5 1.879c-4.542 2.083-8.91 6.166-11.343 10.6C6.642 15.241 6.5 25.14 6.5 128s.142 112.759 1.657 115.521c2.433 4.434 6.801 8.517 11.343 10.6 3.777 1.733 8.579 1.835 86 1.835 77.195 0 82.234-.107 86-1.822 5.144-2.342 11.072-8.932 12.428-13.813 1.518-5.468 1.474-219.328-.046-224.821-1.47-5.307-9.075-12.912-14.382-14.382-2.776-.768-28.792-1.102-85-1.09-76.431.015-81.226.119-85 1.851m194.062 2.892c-.309.309-.562 47.858-.562 105.664v105.102l6.885 20.481c3.878 11.535 7.154 19.827 7.5 18.982.339-.825 3.315-9.586 6.615-19.469l6-17.969v-97.781c0-97.114.014-97.781 2-97.781 1.967 0 2 .667 2 39.826v39.825l2.5 2.349 2.5 2.349V17.765l-3.75-3.707c-3.146-3.109-5.038-3.984-11.75-5.434-4.4-.95-10.56-2.332-13.688-3.071s-5.941-1.091-6.25-.782M157 33c0 1.778.667 2 6 2 5.59 0 5.992-.154 5.884-2.25-.087-1.693-.229-1.817-.573-.5-.37 1.414-1.452 1.715-5.634 1.57l-5.177-.18 4.75-.375c6.304-.497 6.109-2.265-.25-2.265-4.333 0-5 .267-5 2m-5 15.5c0 11.833.107 12.5 2 12.5s2-.667 2-12.5-.107-12.5-2-12.5-2 .667-2 12.5m18.203.25.202 12.75.579-12.5.578-12.5.503 12.5.503 12.5.216-12.75c.182-10.763-.018-12.75-1.284-12.75s-1.468 1.993-1.297 12.75M157 64c0 1.733.667 2 5 2s5-.267 5-2-.667-2-5-2-5 .267-5 2m11.158 0c0 1.375.227 1.938.504 1.25.278-.687.278-1.812 0-2.5-.277-.687-.504-.125-.504 1.25M29.357 88.992C25.421 90.58 24 93.927 24 101.612c0 5.659.414 7.663 1.967 9.527l1.966 2.361.034-2.75c.033-2.739 1.357-3.653 2.533-1.75.894 1.447 16.828 1.272 18.3-.2.677-.677 1.2-3.922 1.2-7.45 0-4.898-.379-6.471-1.75-7.27-1.45-.844-1.192-1.024 1.5-1.05 4.249-.039 4.144-1.759-.218-3.581-3.79-1.584-16.661-1.875-20.175-.457m44 0C69.421 90.58 68 93.927 68 101.612c0 5.659.414 7.663 1.967 9.527l1.966 2.361.034-2.75c.033-2.739 1.357-3.653 2.533-1.75.894 1.447 16.828 1.272 18.3-.2.677-.677 1.2-3.922 1.2-7.45 0-4.898-.379-6.471-1.75-7.27-1.45-.844-1.192-1.024 1.5-1.05 4.046-.037 4.171-1.502.3-3.504-3.246-1.679-16.979-2.033-20.693-.534m43.347.604c-1.538.834-3.225 2.645-3.75 4.025-1.347 3.543-1.159 13.42.311 16.3 1.813 3.553 3.735 3.791 3.735.462 0-2.164.267-2.516 1.2-1.583 1.613 1.613 16.987 1.613 18.6 0 .671-.671 1.2-3.889 1.2-7.3s-.529-6.629-1.2-7.3c-.933-.933-.6-1.2 1.5-1.2 3.546 0 3.433-1.57-.25-3.474-3.957-2.046-17.525-2.001-21.346.07m44.406-.2c-3.559 1.972-5.035 5.434-5.075 11.904-.034 5.692 2.014 11.7 3.991 11.7.536 0 .974-1.215.974-2.7 0-2.1.267-2.433 1.2-1.5 1.613 1.613 16.987 1.613 18.6 0 .671-.671 1.2-3.889 1.2-7.3s-.529-6.629-1.2-7.3c-.933-.933-.581-1.2 1.583-1.2 3.329 0 3.091-1.922-.462-3.735-3.246-1.656-17.752-1.565-20.811.131M26.923 130.923C24.214 133.632 24 134.394 24 141.312c0 5.957.398 7.944 1.967 9.827l1.966 2.361.034-3.405c.031-3.235.124-3.322 1.862-1.75 2.539 2.298 16.323 2.36 18.6.084 1.79-1.791 2.245-12.894.571-13.929-1.967-1.216-.962-2.726 1.5-2.255 3.097.592 3.222-.626.277-2.688-1.627-1.14-4.728-1.557-11.576-1.557-9.006 0-9.464.109-12.278 2.923m44 0C68.214 133.632 68 134.394 68 141.312c0 5.957.398 7.944 1.967 9.827l1.966 2.361.034-2.75c.033-2.739 1.357-3.653 2.533-1.75.816 1.32 15.087 1.291 17.566-.035 1.603-.858 1.934-2.131 1.934-7.441 0-3.523-.45-6.684-1-7.024-1.967-1.216-.962-2.726 1.5-2.255 3.097.592 3.222-.626.277-2.688-1.627-1.14-4.728-1.557-11.576-1.557-9.006 0-9.464.109-12.278 2.923m44 0c-2.643 2.643-2.923 3.559-2.923 9.55 0 6.485 1.942 12.527 4.026 12.527.536 0 .974-1.141.974-2.535 0-2.197.258-2.397 1.934-1.5 1.064.569 4.919 1.035 8.566 1.035 9.751 0 10.5-.645 10.5-9.035 0-3.977-.429-6.965-1-6.965-.55 0-1-.502-1-1.117 0-.651 1.041-.917 2.5-.638 3.097.592 3.222-.626.277-2.688-1.627-1.14-4.728-1.557-11.576-1.557-9.006 0-9.464.109-12.278 2.923m44.408-.531c-2.491 2.143-2.82 3.168-3.157 9.827-.345 6.834-.167 7.672 2.194 10.358l2.569 2.923.031-3.321c.029-3.02.175-3.179 1.603-1.75 1.954 1.953 16.353 2.247 18.229.371 1.513-1.513 1.64-14.8.141-14.8-.582 0-.757-.489-.387-1.087.369-.598 1.521-.865 2.559-.594 2.567.671 2.381-.86-.336-2.762-1.621-1.136-4.716-1.557-11.444-1.557-8.284 0-9.504.243-12.002 2.392M26.455 170.455c-2.194 2.193-2.452 3.284-2.423 10.25.02 4.891.526 8.447 1.36 9.545 1.842 2.426 2.608 2.189 2.608-.807 0-2.442.099-2.487 2.223-1C31.685 189.468 34.686 190 39 190c9.271 0 11-1.415 11-8.998 0-3.236-.45-6.162-1-6.502-1.903-1.176-.989-2.5 1.75-2.533l2.75-.034-2.361-1.966C49.14 168.301 47.256 168 38.844 168c-9.215 0-10.113.178-12.389 2.455m45.458-1.173C69.069 171.466 68 174.755 68 181.323c0 4.952.458 7.005 1.967 8.816l1.966 2.361.034-2.673c.033-2.649.061-2.66 3.104-1.142 3.964 1.978 16.586 1.471 17.972-.721 1.353-2.139 1.168-13.353-.243-14.764-.933-.933-.544-1.207 1.75-1.233l2.95-.034-2.361-1.966c-1.995-1.663-3.852-1.962-12-1.935-5.995.02-10.239.492-11.226 1.25m42.676 1.795c-2.222 2.64-2.589 4.027-2.589 9.777 0 4.446.524 7.449 1.557 8.923 2.102 3.002 3.44 2.798 3.458-.527.012-2.077.242-2.392.942-1.286 1.167 1.846 13.379 2.656 17.293 1.146 2.628-1.013 2.75-1.364 2.75-7.885 0-3.975-.501-7.326-1.2-8.025-.933-.933-.566-1.2 1.655-1.2 2.792 0 2.815-.044 1.045-2-1.586-1.752-3.08-2-12.066-2-10.225 0-10.264.009-12.845 3.077m44.717-.665-2.806 2.412-.26 26.838c-.194 20.067.058 27.449 1 29.259 1.83 3.516 3.76 3.793 3.76.54 0-2.207.258-2.491 1.401-1.543.897.744 4.586 1.058 10.25.872l8.849-.29.267-26.878c.188-18.992-.068-27.28-.873-28.25-.916-1.103-.626-1.372 1.484-1.372 3.058 0 3.311-.756.872-2.608-1.168-.887-4.972-1.339-11.444-1.36-8.829-.029-9.945.183-12.5 2.38M26.455 210.455C24.289 212.62 24 213.783 24 220.344c0 5.926.399 7.914 1.967 9.795l1.966 2.361.034-2.95c.026-2.294.3-2.683 1.233-1.75.747.747 4.444 1.2 9.8 1.2s9.053-.453 9.8-1.2c.677-.677 1.2-3.922 1.2-7.45 0-4.898-.379-6.471-1.75-7.27-1.438-.837-1.143-1.025 1.655-1.05 3.341-.029 3.371-.067 1.595-2.03-1.589-1.756-3.08-2-12.2-2-9.699 0-10.554.163-12.845 2.455m44 0C68.289 212.62 68 213.783 68 220.344c0 5.926.399 7.914 1.967 9.795l1.966 2.361.034-2.75c.018-1.512.483-2.75 1.033-2.75s1 .45 1 1c0 1.473 17.311 1.289 18.8-.2.677-.677 1.2-3.922 1.2-7.45 0-4.898-.379-6.471-1.75-7.27-1.45-.844-1.192-1.024 1.5-1.05 3.665-.034 4.047-.705 1.5-2.638-1.185-.9-5.073-1.339-12.045-1.36-9.619-.03-10.457.129-12.75 2.423m45.774-1.786c-4.023 1.619-5.906 16.492-2.672 21.108 2.093 2.989 3.443 2.802 3.443-.477 0-2.1.267-2.433 1.2-1.5.736.736 4.333 1.2 9.3 1.2s8.564-.464 9.3-1.2c.671-.671 1.2-3.889 1.2-7.3s-.529-6.629-1.2-7.3c-.933-.933-.6-1.2 1.5-1.2 3.152 0 3.535-1.483.766-2.965-1.934-1.035-20.437-1.331-22.837-.366"/><path fill="#1976D2" fill-opacity=".144" fill-rule="evenodd" d="M214 111.162V217.54l6.385 18.98c3.61 10.729 6.653 18.328 7 17.48.339-.825 3.315-9.586 6.615-19.469l6-17.969v-97.281c0-96.614.014-97.281 2-97.281 1.966 0 2 .667 2 39.444v39.444l2.468 2.806 2.469 2.806.031-43.602.032-43.602-2.273-3.372c-2.951-4.381-5.104-5.344-17.727-7.936-5.775-1.185-11.512-2.392-12.75-2.68L214 4.783zM21.19 11.023C14.664 15.007 15 8.232 15 135.854v115.918l3.75 1.864c3.568 1.774 7.777 1.864 86.75 1.864h83l4.456-2.5c5.779-3.243 9.779-9.067 11.069-16.118.673-3.683.932-42.423.751-112.5-.27-104.594-.319-106.968-2.276-110.882l-2-4-88-.249c-86.774-.246-88.046-.222-91.31 1.772M155.819 33.25c-.203 1.425-.962 2.199-2.069 2.111-1.586-.126-1.75 1.114-1.75 13.25 0 12.722.1 13.389 2 13.389q2 0 2 2c0 1.795.667 2 6.5 2s6.5-.205 6.5-2-.667-2-6.5-2H156V35h6.5c5.833 0 6.5-.205 6.5-2 0-1.793-.667-2-6.43-2-5.908 0-6.457.183-6.751 2.25M170 48.662c0 12.304.153 13.455 1.75 13.148 1.559-.301 1.75-1.746 1.75-13.228 0-11.513-.187-12.919-1.75-13.148-1.593-.234-1.75.954-1.75 13.228M27.75 89.08c-4.55 2.65-6.404 14.82-3.202 21.013 2.033 3.932 4.928 4.907 14.567 4.907 13.206 0 16.483-3.262 15.696-15.625-.365-5.735-.799-6.968-3.173-9.01-2.489-2.141-3.669-2.362-12.444-2.335-5.332.017-10.482.489-11.444 1.05m42.896 1.372C68.188 92.731 68 93.502 68 101.341c0 12.558.685 13.159 14.998 13.159 11.109 0 11.19-.017 13.687-2.92 2.31-2.686 2.483-3.555 2.151-10.847-.328-7.221-.608-8.141-3.154-10.33C93.143 88.219 91.995 88 83.09 88c-9.014 0-10.01.196-12.444 2.452m44.431.137C112.095 93.098 112 93.435 112 101.5s.095 8.402 3.077 10.911c2.837 2.388 3.815 2.589 12.577 2.589 9.167 0 9.602-.103 12.423-2.923 2.721-2.722 2.923-3.451 2.923-10.577s-.202-7.855-2.923-10.577c-2.821-2.82-3.256-2.923-12.423-2.923-8.762 0-9.74.201-12.577 2.589m43.846.334c-2.712 2.713-2.923 3.465-2.923 10.444 0 6.507.325 7.9 2.412 10.327 2.299 2.675 2.881 2.822 12.484 3.149l10.071.343 3.118-3.117c3.076-3.076 3.113-3.235 2.767-11.651-.475-11.515-1.516-12.365-15.179-12.396-9.541-.021-9.912.063-12.75 2.901M26.331 130.392c-2.494 2.145-2.82 3.165-3.159 9.869-.361 7.149-.245 7.626 2.642 10.858l3.02 3.381H49.16l3.023-3.381c2.878-3.219 3.005-3.73 2.653-10.686-.305-6.042-.785-7.75-2.777-9.87-2.281-2.428-2.948-2.563-12.678-2.563-9.389 0-10.508.205-13.05 2.392m44.124.063C68.239 132.67 68 133.726 68 141.28c0 7.627.221 8.579 2.49 10.71 2.056 1.932 3.862 2.419 10.369 2.796 14.904.862 18.633-2.363 17.968-15.542C98.3 128.808 97.187 128 83.344 128c-9.746 0-10.597.162-12.889 2.455m44 0c-2.197 2.196-2.455 3.294-2.455 10.444 0 6.927.31 8.35 2.332 10.701 2.093 2.433 3.159 2.759 10.369 3.177 15.234.881 18.729-1.981 18.144-14.862-.508-11.182-1.462-11.915-15.501-11.915-9.746 0-10.597.162-12.889 2.455m43.997.191c-2.167 2.338-2.452 3.553-2.452 10.444 0 6.697.325 8.176 2.301 10.474 1.986 2.308 3.276 2.744 9.411 3.183 9.104.652 13.909-.277 16.9-3.268C186.736 149.355 187 148.196 187 141c0-7.257-.253-8.344-2.455-10.545-2.297-2.298-3.134-2.455-13.047-2.455-10.171 0-10.691.106-13.046 2.646M26.766 169.918c-3.183 2.844-3.266 3.125-3.266 11.087 0 7.71.157 8.304 2.806 10.582C28.863 193.786 29.989 194 39 194c8.855 0 10.166-.239 12.543-2.283 3.038-2.614 4.151-8.605 3.01-16.211-1.007-6.716-4.315-8.497-15.787-8.502-8.24-.004-8.919.161-12 2.914M74 167.706c-.825.302-2.513 1.47-3.75 2.596-1.991 1.811-2.25 3.01-2.25 10.418 0 7.554.239 8.61 2.455 10.825 2.293 2.294 3.142 2.455 12.911 2.455 10.448 0 10.458-.002 13.045-3.077 2.191-2.604 2.589-4.053 2.589-9.435 0-11.931-2.842-14.539-15.7-14.409-4.29.043-8.475.326-9.3.627m43.357.239c-4.056 1.725-5.357 4.961-5.357 13.323 0 6.972.267 8.09 2.455 10.277 2.29 2.291 3.148 2.455 12.811 2.455 9.022 0 10.637-.261 12.533-2.028 2.854-2.658 3.519-5.638 3.017-13.519-.61-9.587-2.247-10.887-14.092-11.186-5.073-.129-10.188.176-11.367.678m43.418.565c-1.499.84-3.186 2.39-3.75 3.443-.629 1.175-1.025 12.538-1.025 29.392v27.477l3.077 2.589c2.837 2.388 3.815 2.589 12.577 2.589 9.167 0 9.602-.103 12.423-2.923l2.923-2.923v-55.042l-2.412-2.806c-2.285-2.658-2.906-2.82-11.75-3.065-6.908-.192-10.047.138-12.063 1.269M28.42 208.145c-5.128 2.488-7.311 14.298-3.872 20.948C26.617 233.095 29.47 234 40.009 234c7.945 0 9.175-.254 11.685-2.413 2.673-2.3 2.806-2.824 2.806-11.087s-.133-8.787-2.806-11.087c-2.542-2.186-3.67-2.407-12-2.345-5.057.037-10.13.521-11.274 1.077m42.657 1.444C68.096 212.097 68 212.437 68 220.478c0 12.188.794 12.925 14.396 13.363l10.577.34 3.118-3.118c3.056-3.056 3.111-3.279 2.752-11.187-.335-7.374-.607-8.277-3.161-10.473-2.52-2.168-3.711-2.403-12.161-2.403-8.619 0-9.613.207-12.444 2.589m44 0c-2.981 2.508-3.077 2.848-3.077 10.889 0 12.188.794 12.925 14.396 13.363l10.577.34 3.013-3.013c2.827-2.827 3.014-3.489 3.014-10.668 0-7.126-.202-7.855-2.923-10.577-2.821-2.82-3.256-2.923-12.423-2.923-8.762 0-9.74.201-12.577 2.589"/><path fill="#1976D2" fill-opacity=".569" fill-rule="evenodd" d="M240 16.5c0 5.2.136 5.5 2.5 5.5h2.5v39.845c0 38.575.064 39.903 2 41.655 1.997 1.807 2 1.747 2-40.385 0-40.244-.093-42.376-2.003-46.121-1.731-3.393-4.522-5.994-6.431-5.994-.311 0-.566 2.475-.566 5.5M25.2 19.2c-1.709 1.709-1.709 52.891 0 54.6 1.738 1.738 158.862 1.738 160.6 0 1.709-1.709 1.709-52.891 0-54.6-1.738-1.738-158.862-1.738-160.6 0M156 33q0 2-2 2c-1.901 0-2 .667-2 13.5s.099 13.5 2 13.5q2 0 2 2c0 1.81.667 2 7 2s7-.19 7-2q0-2 2-2c1.901 0 2-.667 2-13.5s-.099-13.5-2-13.5q-2 0-2-2c0-1.81-.667-2-7-2s-7 .19-7 2m.339 3.558c-.223.582-.278 6.432-.122 13L156.5 61.5l6.25.298 6.25.297V35.5h-6.127c-3.387 0-6.309.473-6.534 1.058m57.841 62.654c.308 2.129.802 2.226 13.07 2.569l12.75.357V97h-13.07c-12.917 0-13.065.026-12.75 2.212m.242 118.538c2.834 8.912 9.438 27.536 9.485 26.75.033-.55-1.283-7.068-2.923-14.485S218 216.41 218 216.265c0-.146-.93-.265-2.067-.265-1.515 0-1.919.468-1.511 1.75m8.992 5.5c1.957 20.563 3.35 31.097 3.934 29.75 1.535-3.538 11.652-34.548 11.652-35.716 0-.94-2.179-1.284-8.138-1.284h-8.138z"/></svg>